<svg width="32" height="32" viewBox="0 0 32 32" fill="none" xmlns="http://www.w3.org/2000/svg">
<path d="M16 29.2C15.8445 29.2 15.7 29.1889 15.5667 29.1667C15.4333 29.1444 15.3 29.1111 15.1667 29.0667C12.1667 28.0667 9.77779 26.2169 8.00001 23.5173C6.22223 20.8178 5.33334 17.912 5.33334 14.8V8.5C5.33334 7.94445 5.49468 7.44445 5.81734 7C6.14001 6.55556 6.55645 6.23334 7.06668 6.03334L15.0667 3.03334C15.3778 2.92222 15.6889 2.86667 16 2.86667C16.3111 2.86667 16.6222 2.92222 16.9333 3.03334L24.9333 6.03334C25.4445 6.23334 25.8613 6.55556 26.184 7C26.5067 7.44445 26.6676 7.94445 26.6667 8.5V14.8C26.6667 17.9111 25.7778 20.8169 24 23.5173C22.2222 26.2178 19.8333 28.0676 16.8333 29.0667C16.7 29.1111 16.5667 29.1444 16.4333 29.1667C16.3 29.1889 16.1556 29.2 16 29.2ZM16 26.5333C18.3111 25.8 20.2222 24.3333 21.7333 22.1333C23.2445 19.9333 24 17.4889 24 14.8V8.5L16 5.5L8.00001 8.5V14.8C8.00001 17.4889 8.75557 19.9333 10.2667 22.1333C11.7778 24.3333 13.6889 25.8 16 26.5333Z" fill="#00DC82"/>
<path d="M16.61 18H20.3272C20.445 18 20.5611 17.9722 20.6636 17.9198C20.7659 17.8668 20.8508 17.7911 20.9096 17.7001C20.9688 17.6088 21 17.5054 21 17.4001C21 17.2949 20.9688 17.1915 20.9096 17.1002L18.4127 13.244C18.3546 13.1526 18.2701 13.0765 18.1678 13.0236C18.0654 12.9706 17.949 12.9427 17.8304 12.9427C17.7118 12.9427 17.5954 12.9706 17.4931 13.0236C17.3907 13.0765 17.3062 13.1526 17.2481 13.244L16.6096 14.2306L15.3619 12.3013C15.3037 12.2099 15.2192 12.1338 15.1168 12.0808C15.0144 12.0279 14.898 12 14.7794 12C14.6608 12 14.5443 12.0279 14.442 12.0808C14.3396 12.1338 14.255 12.2099 14.1969 12.3013L11.09 17.1002C11.0009 17.238 10.9768 17.4012 11.0229 17.5546C11.069 17.708 11.1817 17.8391 11.3364 17.9195C11.4386 17.9722 11.5543 18 11.6725 18H14.0059C14.9305 18 15.6122 17.6379 16.0811 16.9313L17.2203 15.1721L17.8302 14.2306L19.6612 17.0585H17.2203L16.61 18ZM13.968 17.0576L12.3396 17.0573L14.7808 13.2869L15.9986 15.1718L15.1833 16.4321C14.8715 16.8906 14.5176 17.0576 13.968 17.0576Z" fill="#00DC82"/>
</svg>
